<svg width="16" height="12" viewBox="0 0 16 12" fill="none" xmlns="http://www.w3.org/2000/svg">
<path d="M12.4311 10.5938H2.99416C2.80767 10.5938 2.62883 10.6678 2.49696 10.7997C2.3651 10.9316 2.29102 11.1104 2.29102 11.2969C2.29102 11.4834 2.3651 11.6622 2.49696 11.7941C2.62883 11.926 2.80767 12 2.99416 12H12.4311C12.6175 12 12.7964 11.926 12.9283 11.7941C13.0601 11.6622 13.1342 11.4834 13.1342 11.2969C13.1342 11.1104 13.0601 10.9316 12.9283 10.7997C12.7964 10.6678 12.6175 10.5938 12.4311 10.5938Z" fill="#FFC300"/>
<path d="M14.3578 1.90003C14.1853 1.91972 14.0213 1.98606 13.8836 2.09192C13.7459 2.19777 13.6396 2.33915 13.5762 2.50085C13.5128 2.66256 13.4946 2.83848 13.5237 3.00973C13.5527 3.18098 13.6279 3.34109 13.7411 3.47284L12.2453 4.74652C12.0132 4.94467 11.7403 5.08941 11.4461 5.17054C11.1518 5.25166 10.8433 5.26718 10.5424 5.216C10.2415 5.16482 9.95549 5.04818 9.7046 4.87434C9.45371 4.70049 9.24406 4.47367 9.09045 4.20991L8.11592 2.53224C8.40948 2.43612 8.65915 2.2385 8.82009 1.97485C8.98104 1.71121 9.04272 1.39882 8.99406 1.09379C8.94539 0.788761 8.78957 0.511074 8.55458 0.3106C8.31958 0.110126 8.02081 0 7.71193 0C7.40304 0 7.10427 0.110126 6.86928 0.3106C6.63428 0.511074 6.47846 0.788761 6.4298 1.09379C6.38113 1.39882 6.44281 1.71121 6.60376 1.97485C6.7647 2.2385 7.01437 2.43612 7.30793 2.53224L6.3334 4.20991C6.17979 4.47367 5.97014 4.70049 5.71925 4.87434C5.46836 5.04818 5.18236 5.16482 4.88144 5.216C4.58053 5.26718 4.27205 5.25166 3.97779 5.17054C3.68354 5.08941 3.41069 4.94467 3.17851 4.74652L1.68588 3.47284C1.78696 3.35337 1.85716 3.21091 1.89033 3.05797C1.9235 2.90503 1.91862 2.74629 1.87611 2.59567C1.8336 2.44506 1.75477 2.30719 1.64654 2.19415C1.53831 2.08112 1.40398 1.99638 1.25535 1.94739C1.10673 1.89839 0.948343 1.88662 0.794108 1.91313C0.639873 1.93963 0.494502 2.0036 0.370759 2.0994C0.247016 2.19521 0.148684 2.31992 0.0843948 2.46261C0.0201057 2.60529 -0.00817433 2.76157 0.00203784 2.91773C0.01856 3.09787 0.0850523 3.26982 0.194026 3.41421C0.302999 3.5586 0.450124 3.66969 0.618829 3.73498C0.786049 3.80247 0.969347 3.81962 1.14618 3.78432L2.17931 9.08564C2.21003 9.24489 2.29509 9.38853 2.41996 9.49203C2.54483 9.59552 2.70176 9.65245 2.86395 9.65309H12.5568C12.7195 9.65317 12.8772 9.59657 13.0027 9.49301C13.1282 9.38945 13.2137 9.24541 13.2445 9.08564L14.2808 3.79049C14.4566 3.82517 14.6387 3.80803 14.805 3.74115C14.9746 3.6754 15.1223 3.56336 15.2314 3.41779C15.3404 3.27222 15.4064 3.09896 15.4218 2.91773C15.4324 2.77735 15.4117 2.63637 15.3613 2.50492C15.3109 2.37348 15.232 2.25483 15.1303 2.15752C15.0285 2.06021 14.9065 1.98665 14.7729 1.94213C14.6394 1.8976 14.4976 1.88323 14.3578 1.90003Z" fill="#FFC300"/>
</svg>
