<svg width="10" height="17" viewBox="0 0 10 17" fill="none" xmlns="http://www.w3.org/2000/svg">
<path d="M1.8 2.6C2.24183 2.6 2.6 2.24183 2.6 1.8C2.6 1.35817 2.24183 1 1.8 1C1.35817 1 1 1.35817 1 1.8C1 2.24183 1.35817 2.6 1.8 2.6Z" stroke="#555770" stroke-opacity="0.5" stroke-width="2" stroke-linecap="round" stroke-linejoin="round"/>
<path d="M8.2 2.6C8.64183 2.6 9 2.24183 9 1.8C9 1.35817 8.64183 1 8.2 1C7.75817 1 7.4 1.35817 7.4 1.8C7.4 2.24183 7.75817 2.6 8.2 2.6Z" stroke="#555770" stroke-opacity="0.5" stroke-width="2" stroke-linecap="round" stroke-linejoin="round"/>
<path d="M1.8 8.99999C2.24183 8.99999 2.6 8.64182 2.6 8.19999C2.6 7.75817 2.24183 7.39999 1.8 7.39999C1.35817 7.39999 1 7.75817 1 8.19999C1 8.64182 1.35817 8.99999 1.8 8.99999Z" stroke="#555770" stroke-opacity="0.5" stroke-width="2" stroke-linecap="round" stroke-linejoin="round"/>
<path d="M8.2 8.99999C8.64183 8.99999 9 8.64182 9 8.19999C9 7.75817 8.64183 7.39999 8.2 7.39999C7.75817 7.39999 7.4 7.75817 7.4 8.19999C7.4 8.64182 7.75817 8.99999 8.2 8.99999Z" stroke="#555770" stroke-opacity="0.5" stroke-width="2" stroke-linecap="round" stroke-linejoin="round"/>
<path d="M1.8 15.4C2.24183 15.4 2.6 15.0418 2.6 14.6C2.6 14.1582 2.24183 13.8 1.8 13.8C1.35817 13.8 1 14.1582 1 14.6C1 15.0418 1.35817 15.4 1.8 15.4Z" stroke="#555770" stroke-opacity="0.5" stroke-width="2" stroke-linecap="round" stroke-linejoin="round"/>
<path d="M8.2 15.4C8.64183 15.4 9 15.0418 9 14.6C9 14.1582 8.64183 13.8 8.2 13.8C7.75817 13.8 7.4 14.1582 7.4 14.6C7.4 15.0418 7.75817 15.4 8.2 15.4Z" stroke="#555770" stroke-opacity="0.5" stroke-width="2" stroke-linecap="round" stroke-linejoin="round"/>
</svg>
