<svg width="27" height="26" viewBox="0 0 27 26" fill="none" xmlns="http://www.w3.org/2000/svg">
<g filter="url(#filter0_d_3_2183)">
<path d="M1.5 9C1.5 4.58172 5.08172 1 9.5 1H17.5C21.9183 1 25.5 4.58172 25.5 9V17C25.5 21.4183 21.9183 25 17.5 25H9.5C5.08172 25 1.5 21.4183 1.5 17V9Z" fill="white"/>
<path d="M13.5 13.75C13.9142 13.75 14.25 13.4142 14.25 13C14.25 12.5858 13.9142 12.25 13.5 12.25C13.0858 12.25 12.75 12.5858 12.75 13C12.75 13.4142 13.0858 13.75 13.5 13.75Z" stroke="#091E42" stroke-width="1.6" stroke-linecap="round" stroke-linejoin="round"/>
<path d="M18.75 13.75C19.1642 13.75 19.5 13.4142 19.5 13C19.5 12.5858 19.1642 12.25 18.75 12.25C18.3358 12.25 18 12.5858 18 13C18 13.4142 18.3358 13.75 18.75 13.75Z" stroke="#091E42" stroke-width="1.6" stroke-linecap="round" stroke-linejoin="round"/>
<path d="M8.25 13.75C8.66421 13.75 9 13.4142 9 13C9 12.5858 8.66421 12.25 8.25 12.25C7.83579 12.25 7.5 12.5858 7.5 13C7.5 13.4142 7.83579 13.75 8.25 13.75Z" stroke="#091E42" stroke-width="1.6" stroke-linecap="round" stroke-linejoin="round"/>
</g>
<defs>
<filter id="filter0_d_3_2183" x="0.5" y="0" width="26" height="26" filterUnits="userSpaceOnUse" color-interpolation-filters="sRGB">
<feFlood flood-opacity="0" result="BackgroundImageFix"/>
<feColorMatrix in="SourceAlpha" type="matrix" values="0 0 0 0 0 0 0 0 0 0 0 0 0 0 0 0 0 0 127 0" result="hardAlpha"/>
<feOffset/>
<feGaussianBlur stdDeviation="0.5"/>
<feColorMatrix type="matrix" values="0 0 0 0 0 0 0 0 0 0 0 0 0 0 0 0 0 0 0.4 0"/>
<feBlend mode="normal" in2="BackgroundImageFix" result="effect1_dropShadow_3_2183"/>
<feBlend mode="normal" in="SourceGraphic" in2="effect1_dropShadow_3_2183" result="shape"/>
</filter>
</defs>
</svg>
